<?xml version="1.0" encoding="UTF-8"?>
<svg width="74px" height="30px" viewBox="0 0 74 30" version="1.1" xmlns="http://www.w3.org/2000/svg" xmlns:xlink="http://www.w3.org/1999/xlink">
    <!-- Generator: Sketch 46 (44423) - http://www.bohemiancoding.com/sketch -->
    <title>NYPR_logo</title>
    <desc>Created with Sketch.</desc>
    <defs></defs>
    <g id="Page-1" stroke="none" stroke-width="1" fill="none" fill-rule="evenodd">
        <g id="NYPR_logo" fill-rule="nonzero" fill="#000000">
            <path d="M22.3554899,2.94576923 L20.1447773,0.149797571 L19.4736842,0.149797571 L19.4736842,4.19433198 L20.1858219,4.19433198 L20.1858219,1.31627126 L22.4615466,4.19433198 L23.0688259,4.19433198 L23.0688259,0.149797571 L22.3554899,0.149797571 L22.3554899,2.94576923 L22.3554899,2.94576923 Z M25.1201538,2.47151012 L27.1271417,2.47151012 L27.1271417,1.83606883 L25.1201538,1.83606883 L25.1201538,0.785238866 L27.3843441,0.785238866 L27.3843441,0.149797571 L24.417004,0.149797571 L24.417004,4.19433198 L27.4129555,4.19433198 L27.4129555,3.55889069 L25.1201538,3.55889069 L25.1201538,2.47151012 L25.1201538,2.47151012 Z M32.9052834,3.13061943 L31.9179676,0.149797571 L31.3213239,0.149797571 L30.3338583,3.13061943 L29.3741053,0.161631579 L28.611336,0.161631579 L30.0123927,4.19433198 L30.6201215,4.19433198 L31.607587,1.31642105 L32.5950526,4.19433198 L33.2033806,4.19433198 L34.6032389,0.161481781 L33.8627895,0.161481781 L32.9052834,3.13046964 L32.9052834,3.13061943 Z M38.2039231,1.94167611 L37.0813401,0.149797571 L36.2510121,0.149797571 L37.8438097,2.60018623 L37.8438097,4.19433198 L38.5541498,4.19433198 L38.5541498,2.58310931 L40.145749,0.149797571 L39.3387895,0.149797571 L38.2039231,1.94167611 L38.2039231,1.94167611 Z M42.6982996,3.54046559 C41.9016761,3.54046559 41.3342429,2.88480162 41.3342429,2.09192308 C41.3342429,1.29769636 41.8899919,0.654465587 42.6864656,0.654465587 C43.4829393,0.654465587 44.0497733,1.30953036 44.0497733,2.1025587 C44.0497733,2.89723482 43.4940243,3.54061538 42.6981498,3.54061538 L42.6982996,3.54046559 Z M42.6982996,0 C41.4663644,5.32187879e-16 40.5951417,0.95645749 40.5951417,2.1025587 C40.5951417,3.25030769 41.4549798,4.19433198 42.6863158,4.19433198 C43.9187004,4.19433198 44.7894737,3.23907287 44.7894737,2.09177328 C44.7894737,0.944623482 43.9296356,5.32187879e-16 42.6982996,5.32187879e-16 L42.6982996,0 Z M46.8514372,2.15378947 L46.8514372,0.795275304 L47.889085,0.795275304 C48.4168219,0.795275304 48.729749,1.02686235 48.729749,1.47280972 C48.729749,1.88924696 48.4048381,2.15378947 47.8944777,2.15378947 L46.8514372,2.15378947 L46.8514372,2.15378947 Z M49.454919,1.43266397 C49.454919,0.640534413 48.8816437,0.149797571 47.9464575,0.149797571 L46.1376518,0.149797571 L46.1376518,4.19433198 L46.8514372,4.19433198 L46.8514372,2.78398785 L47.7443806,2.78398785 L48.742332,4.19433198 L49.582996,4.19433198 L48.4867773,2.66280162 C49.0560081,2.50701215 49.454919,2.10240891 49.454919,1.43266397 L49.454919,1.43266397 Z M52.6138502,1.88909717 L54.3017692,0.149797571 L53.4259028,0.149797571 L51.4956113,2.1832996 L51.4956113,0.149797571 L50.7813765,0.149797571 L50.7813765,4.19433198 L51.4956113,4.19433198 L51.4956113,3.02081781 L52.1267085,2.37339271 L53.512336,4.19433198 L54.3765182,4.19433198 L52.6138502,1.88909717 L52.6138502,1.88909717 Z M27.0775587,27.4710769 L27.0775587,26.1139109 L28.1158057,26.1139109 C28.6441417,26.1139109 28.957668,26.3431012 28.957668,26.7888988 C28.957668,27.2047368 28.6321579,27.4710769 28.1223968,27.4710769 L27.0775587,27.4710769 L27.0775587,27.4710769 Z M29.6822389,26.748753 C29.6822389,25.9569231 29.1077652,25.465587 28.1745263,25.465587 L26.3643725,25.465587 L26.3643725,29.5101215 L27.0775587,29.5101215 L27.0775587,28.1011255 L27.9711012,28.1011255 L28.9690526,29.5101215 L29.8097166,29.5101215 L28.7140972,27.9788907 C29.2825789,27.8235506 29.6822389,27.418498 29.6822389,26.748753 Z M32.2554615,27.9147773 L32.9437814,26.3098462 L33.6389919,27.9147773 L32.2554615,27.9147773 Z M32.6271093,25.465587 L30.8582996,29.5101215 L31.5818219,29.5101215 L31.9964615,28.5415304 L33.8973927,28.5415304 L34.3055911,29.5101215 L35.0526316,29.5101215 L33.2838219,25.465587 L32.6271093,25.465587 Z M37.7954251,28.861498 L36.9794777,28.861498 L36.9794777,26.1131619 L37.7955749,26.1131619 C38.6648502,26.1131619 39.2324332,26.6957247 39.2324332,27.4926478 C39.2324332,28.2895709 38.6647004,28.8613482 37.7955749,28.8613482 L37.7954251,28.861498 Z M37.7954251,25.465587 L36.2510121,25.465587 L36.2510121,29.5101215 L37.7954251,29.5101215 C39.096417,29.5101215 39.9959514,28.6248178 39.9959514,27.4808138 C39.9959514,26.3380081 39.096417,25.465587 37.7954251,25.465587 Z M41.194332,29.5101215 L41.9433198,29.5101215 L41.9433198,25.465587 L41.194332,25.465587 L41.194332,29.5101215 Z" id="Shape"></path>
            <path d="M45.3891134,28.834085 C44.5776599,28.834085 43.9983927,28.1734777 43.9983927,27.3677166 C43.9983927,26.563753 44.5650769,25.9127328 45.3771296,25.9127328 C46.189332,25.9127328 46.768,26.5757368 46.768,27.3797004 C46.768,28.1848623 46.2007166,28.834085 45.3891134,28.834085 L45.3891134,28.834085 Z M45.3891134,25.2485304 C44.1333603,25.2485304 43.2440121,26.2175709 43.2440121,27.3797004 C43.2440121,28.54183 44.1218259,29.4982874 45.3771296,29.4982874 C46.6330324,29.4982874 47.5222308,28.5305951 47.5222308,27.3677166 C47.5222308,26.2061862 46.6456154,25.2485304 45.3891134,25.2485304 Z M9.7124251,9.49476923 C8.72645749,8.67223077 7.34277733,8.24695547 5.70578947,8.24695547 L0,8.24695547 L0,21.4824696 L0.712437247,21.4824696 L0.712437247,8.96553441 L5.70578947,8.96553441 C7.22503644,8.96553441 8.43659919,9.35800405 9.25659109,10.0443765 C10.0759838,10.7331457 10.5358623,11.7131215 10.5393077,13.0156113 L10.5393077,13.0509636 C10.5345142,14.4380891 10.0234049,15.4388866 9.15442915,16.1360445 C8.28320648,16.8309555 7.02131174,17.2076964 5.52842915,17.2070972 L3.4597247,17.2070972 L3.4597247,21.4826194 L4.17231174,21.4826194 L4.17231174,17.92283 L5.52842915,17.92283 C7.13725506,17.92283 8.55853441,17.5203239 9.59693117,16.6970364 C10.6356275,15.8770445 11.2566883,14.6199433 11.2518947,13.0509636 L11.2518947,13.0156113 C11.2548907,11.5396559 10.7000405,10.3150607 9.7124251,9.49476923 L9.7124251,9.49476923 Z" id="Shape"></path>
            <polyline id="Shape" points="42.6530607 8.38866397 41.943919 8.38866397 41.9433198 21.5708502 51.5303644 21.5708502 51.5303644 20.8591619 42.6530607 20.8591619 42.6530607 8.38866397"></polyline>
            <path d="M45.9499555,8.38866397 L45.2388664,8.38866397 L45.2388664,18.5748988 L51.3805668,18.5748988 L51.3805668,17.8605142 L45.9481579,17.859915 L45.9499555,8.38866397 L45.9499555,8.38866397 Z M57.5222672,21.5708502 L58.2712551,21.5708502 L58.2712551,8.38866397 L57.5222672,8.38866397 L57.5222672,21.5708502 Z M53.9271255,21.5708502 L54.6761134,21.5708502 L54.6761134,8.38866397 L53.9271255,8.38866397 L53.9271255,21.5708502 Z M70.855,16.0851134 L70.6451336,16.340668 C69.9121741,17.2156356 69.2917126,17.7095182 68.1204453,17.7197045 C66.602996,17.7167085 65.529996,16.4696437 65.5163644,14.7541619 L65.5157652,14.7197085 C65.527749,13.0618988 66.6047935,11.790417 68.1204453,11.7898178 C69.1850567,11.7964089 69.8711296,12.2696194 70.5537571,13.1129798 L71.1065101,12.6707773 C70.3723522,11.7369393 69.4287773,11.0742348 68.1204453,11.0818745 C67.152004,11.0788785 66.3081943,11.4992105 65.7251822,12.1643117 C65.1415709,12.8301619 64.8094696,13.7347895 64.8094696,14.7198583 L64.8094696,14.7543117 C64.8094696,15.7639474 65.1409717,16.6789109 65.7251822,17.3464089 C66.3081943,18.0163036 67.1532024,18.4288462 68.1204453,18.4276478 C69.4039109,18.437085 70.2661457,17.8509271 70.9784332,17.0438178 L73.0018988,18.488915 C71.8963927,19.8910202 70.4885951,20.8497247 68.0136397,20.8605101 C64.6565263,20.8545182 61.9800931,18.3094575 61.9758988,14.7892146 L61.9747004,14.7541619 C61.9812915,11.3215506 64.5865709,8.65500405 68.1560972,8.64721457 C70.5876113,8.65740081 72.0743522,9.64172065 73.1287773,11.0926599 L73.7023522,10.6783198 C72.5601457,9.07578543 70.7892389,7.93103239 68.1560972,7.93927126 C66.1895547,7.93867206 64.4613401,8.68526316 63.230753,9.91450202 C62.000166,11.1431417 61.2672065,12.85383 61.2672065,14.7541619 L61.2672065,14.7892146 C61.2672065,16.736583 62.0185911,18.4382834 63.2403401,19.6467004 C64.4619393,20.8545182 66.1527045,21.5708502 68.0137895,21.5708502 L68.0504899,21.5708502 C70.8812146,21.5708502 72.5986437,20.2875344 73.7901336,18.6202874 L74,18.328332 L70.855,16.0851134 L70.855,16.0851134 Z M4.13456275,14.4379393 L4.13456275,11.9268826 L5.36140486,11.9268826 C5.91595547,11.9256842 6.31846154,12.0549595 6.56472874,12.2561377 C6.81039676,12.4591134 6.94641296,12.7315951 6.9497085,13.1733482 L6.95090688,13.207502 C6.93368016,13.9542429 6.46002024,14.4093279 5.37878138,14.4377895 L4.13456275,14.4377895 L4.13456275,14.4379393 Z M7.00423482,14.6187449 C7.41408097,14.2808016 7.64372065,13.7723887 7.63967611,13.2076518 L7.63967611,13.173498 C7.64417004,12.5764049 7.41752632,12.0522632 6.99719433,11.7189636 C6.58030769,11.3838664 6.01602024,11.235417 5.36140486,11.2348178 L3.44534413,11.2348178 L3.44534413,15.1289555 L5.37878138,15.1289555 L5.37878138,15.1295547 C6.03279757,15.1295547 6.59423887,14.9584858 7.00408502,14.6187449 L7.00423482,14.6187449 Z M31.2560121,16.4372874 L33.4929393,16.4372874 C34.0182794,16.4360891 34.3640121,16.5430445 34.5490121,16.6772632 C34.7302672,16.8156761 34.7976761,16.9546883 34.8039676,17.1994575 L34.8039676,17.2355587 C34.7969271,17.5005506 34.718583,17.6437571 34.5296883,17.7826194 C34.3388462,17.9186356 33.9989555,18.0178016 33.5275425,18.016753 L31.2560121,18.016753 L31.2560121,16.4372874 L31.2560121,16.4372874 Z M30.5587045,18.7246964 L33.5275425,18.7246964 C34.087336,18.7222996 34.5605466,18.6165425 34.9233563,18.3665304 C35.2894615,18.1211619 35.5083158,17.6976842 35.5018745,17.2355587 L35.5018745,17.1994575 C35.5083158,16.7693887 35.3140283,16.3505547 34.9495709,16.0975466 C34.5881093,15.8433401 34.1026154,15.7287449 33.4929393,15.7287449 L30.5587045,15.7287449 L30.5587045,18.7246964 Z M31.2655992,13.0840688 L31.2655992,11.6331296 L33.1415142,11.6331296 C33.6126275,11.6319312 33.931996,11.7249555 34.1032146,11.8455425 C34.2714372,11.9695749 34.338996,12.0924089 34.3461862,12.332834 L34.3461862,12.3672874 C34.3365992,12.6330283 34.2661943,12.7506194 34.0847895,12.8762996 C33.8993401,12.9986842 33.5539069,13.0857166 33.0709595,13.0840688 L31.265749,13.0840688 L31.2655992,13.0840688 Z M34.4682713,13.4614089 C34.8397692,13.2337166 35.0607206,12.8184777 35.0524818,12.3674372 L35.0524818,12.3329838 C35.0595223,11.9098057 34.8604413,11.508498 34.5072186,11.2733158 C34.1571417,11.0358866 33.6972632,10.9370202 33.1415142,10.9352227 L30.5587045,10.9352227 L30.5587045,13.7813765 L33.0709595,13.7813765 C33.631502,13.7795789 34.1008178,13.6935951 34.4681215,13.4614089 L34.4682713,13.4614089 Z" id="Shape"></path>
            <path d="M37.1306235,14.612753 C38.7022996,13.4868745 38.5363239,11.8699595 38.5363239,11.8699595 C38.5363239,9.00897571 35.633247,8.34162753 33.9561134,8.39121053 L30.4089069,8.39121053 L30.4089069,9.08552227 L33.9561134,9.08552227 C37.4398057,9.08552227 37.8196923,11.0991012 37.8220891,11.8699595 C37.8220891,11.8699595 37.9443239,14.0318381 35.6020891,14.63717 C35.6020891,14.63717 38.3709474,15.332081 38.3709474,17.6169433 C38.3709474,17.6169433 38.7819919,20.8639555 33.992664,20.8639555 L30.4089069,20.8639555 L30.4089069,21.5708502 L33.992664,21.5708502 C35.5367773,21.570251 36.8022672,21.250583 37.6944615,20.5890769 C39.0234656,19.6026599 39.1061538,18.1990567 39.0965668,17.7562551 C39.0953684,17.6666761 39.0917733,17.5859352 39.0911741,17.5315587 C39.0875789,17.145081 38.9611498,15.5447935 37.1306235,14.6126032 M25.3556356,15.750166 C25.3526397,17.6912429 24.8081255,19.018 23.8816275,19.8770891 C22.9554291,20.7379757 21.5978138,21.1623522 19.8877247,21.1623522 C18.1776356,21.1616032 16.8396437,20.7297368 15.9300729,19.8764899 C15.021251,19.0220445 14.4935142,17.7185061 14.4911174,15.8379474 L14.4911174,8.38866397 L13.7813765,8.38866397 L13.7813765,15.8380972 C13.7789798,17.8444858 14.3615425,19.3793117 15.4445789,20.3940405 C16.5276154,21.40817 18.0645385,21.8722429 19.8875749,21.8704453 C21.7089636,21.8704453 23.2628138,21.4171579 24.3647247,20.3964372 C25.4667854,19.3763158 26.0664251,17.8184211 26.0647773,15.750166 L26.0647773,8.39210931 L25.3556356,8.39210931 L25.3556356,15.750166" id="Shape"></path>
            <path d="M19.9115425,18.7246964 L19.9236761,18.7246964 C20.6960324,18.7270931 21.3942389,18.4956559 21.8830283,17.991587 C22.370919,17.4867692 22.6200324,16.7502146 22.6194332,15.8271619 L22.6194332,8.39405668 L21.8956113,8.39405668 L21.8956113,15.8271619 C21.8950121,16.6348704 21.6840972,17.1703968 21.3573887,17.5057935 C21.0299312,17.8407409 20.5607652,18.0164534 19.9236761,18.0181012 C19.2877854,18.0164534 18.8216154,17.8359474 18.4925101,17.4863198 C18.1644534,17.1365425 17.9499433,16.574502 17.9499433,15.7384818 L17.9499433,8.38866397 L17.2267206,8.38866397 L17.2267206,15.7384818 C17.2261215,16.687 17.4734372,17.4419798 17.9596802,17.9631255 C18.4420283,18.4814251 19.139336,18.7246964 19.9115425,18.7246964" id="Shape"></path>
        </g>
    </g>
</svg>