<svg width="496" height="200" viewBox="0 0 496 200" xmlns="http://www.w3.org/2000/svg" xmlns:xlink="http://www.w3.org/1999/xlink"><title>NYPR logo Copy</title><defs><path id="a" d="M.24 143.92h317.003V.054H.239z"/></defs><g fill="none" fill-rule="evenodd"><path fill="#FFF" d="M150.238 19.665L135.48 1H131v27h4.754V8.787L150.946 28H155V1h-4.762v18.665m18.456-3.166h13.398v-4.242h-13.398V5.242h15.115V1H164v27h20v-4.242h-15.306v-7.259m51.971 4.4L214.074 1h-3.983l-6.592 19.899-6.407-19.82H192L201.353 28h4.057l6.592-19.212L218.594 28h4.061L232 1.078h-4.943l-6.392 19.82m35.372-7.936L248.543 1H243l10.633 16.358V28h4.742V17.244L269 1h-5.387l-7.576 11.962m30.003 10.673c-5.318 0-9.106-4.377-9.106-9.67 0-5.302 3.71-9.596 9.027-9.596 5.317 0 9.101 4.373 9.101 9.667 0 5.305-3.71 9.6-9.023 9.6zm0-23.635C277.816 0 272 6.385 272 14.036 272 21.698 277.74 28 285.96 28c8.227 0 14.04-6.377 14.04-14.036C300 6.306 294.26 0 286.04 0zm27.725 14.378V5.309h6.927c3.523 0 5.612 1.546 5.612 4.523 0 2.78-2.169 4.546-5.576 4.546h-6.963zm17.38-4.814c0-5.288-3.827-8.564-10.07-8.564H309v27h4.765v-9.415h5.961L326.388 28H332l-7.318-10.224c3.8-1.04 6.463-3.741 6.463-8.212zm21.088 3.047L363.501 1h-5.847l-12.886 13.575V1H340v27h4.768v-7.834l4.213-4.322L358.231 28H364l-11.767-15.389M181.761 183.388v-9.06h6.931c3.527 0 5.62 1.53 5.62 4.506 0 2.776-2.173 4.554-5.576 4.554h-6.975zm17.388-4.822c0-5.286-3.835-8.566-10.065-8.566H177v27h4.761v-9.406h5.965l6.662 9.406H200l-7.314-10.222c3.795-1.037 6.463-3.741 6.463-8.212zm17.178 7.784l4.595-10.714 4.641 10.714h-9.236zm2.481-16.35L207 197h4.83l2.768-6.466h12.69l2.725 6.466H235l-11.808-27h-4.384zm34.502 22.67h-5.447v-18.347h5.448c5.803 0 9.592 3.889 9.592 9.209s-3.79 9.137-9.592 9.137zm0-22.67H243v27h10.31c8.685 0 14.69-5.91 14.69-13.547 0-7.629-6.005-13.453-14.69-13.453zM276 197h5v-27h-5z"/><g transform="translate(1 55)"><mask id="b" fill="#fff"><use xlink:href="#a"/></mask><path d="M303.003 137.487c-5.417 0-9.284-4.41-9.284-9.789 0-5.367 3.783-9.713 9.204-9.713 5.422 0 9.285 4.426 9.285 9.793 0 5.375-3.787 9.709-9.205 9.709zm0-23.936c-8.383 0-14.32 6.469-14.32 14.227s5.86 14.143 14.24 14.143c8.384 0 14.32-6.46 14.32-14.223 0-7.754-5.852-14.147-14.24-14.147zM64.837 8.384C58.255 2.893 49.018.054 38.09.054H0V88.41h4.756V4.851H38.09c10.142 0 18.23 2.62 23.704 7.202 5.47 4.598 8.54 11.14 8.563 19.835v.236c-.032 9.26-3.444 15.941-9.245 20.595-5.816 4.639-14.24 7.154-24.206 7.15h-13.81v28.542h4.757V64.647h9.053c10.74 0 20.228-2.687 27.16-8.183C71 50.99 75.146 42.598 75.114 32.124v-.236c.02-9.853-3.684-18.028-10.277-23.504" fill="#FFF" mask="url(#b)"/></g><path fill="#FFF" d="M285.738 56h-4.734L281 144h64v-4.751h-59.262V56"/><path fill="#FFF" d="M307.747 56H303v68h41v-4.769l-36.265-.004.012-63.227M385 144h5V56h-5zm-24 0h5V56h-5zm113.005-36.621l-1.401 1.706c-4.893 5.841-9.035 9.138-16.854 9.206-10.13-.02-17.293-8.345-17.384-19.797l-.004-.23c.08-11.067 7.27-19.555 17.388-19.559 7.107.044 11.687 3.203 16.244 8.833l3.69-2.952c-4.901-6.234-11.2-10.658-19.934-10.607-6.465-.02-12.098 2.786-15.99 7.226-3.896 4.445-6.113 10.484-6.113 17.06v.23c0 6.74 2.213 12.848 6.113 17.304 3.892 4.472 9.533 7.226 15.99 7.218 8.568.063 14.324-3.85 19.079-9.238l13.508 9.647c-7.38 9.36-16.778 15.76-33.3 15.832-22.411-.04-40.278-17.03-40.306-40.53l-.008-.234c.044-22.915 17.436-40.716 41.265-40.768 16.232.068 26.157 6.639 33.196 16.325l3.829-2.766c-7.625-10.698-19.447-18.34-37.025-18.285-13.128-.004-24.665 4.98-32.88 13.186C414.893 74.388 410 85.808 410 98.494v.234c0 13 5.016 24.36 13.172 32.427 8.155 8.063 19.442 12.845 31.866 12.845h.245c18.897 0 30.362-8.567 38.316-19.697l1.401-1.949-20.995-14.975M28.601 96.383V79.62h8.19c3.702-.008 6.389.855 8.033 2.198 1.64 1.355 2.548 3.174 2.57 6.123l.008.228c-.115 4.985-3.277 8.023-10.495 8.213h-8.306zm19.157 1.207c2.736-2.256 4.269-5.65 4.242-9.42v-.228c.03-3.986-1.483-7.485-4.289-9.71-2.783-2.237-6.55-3.228-10.92-3.232H24v25.996h12.907V101c4.366 0 8.114-1.142 10.85-3.41zm161.897 12.14h14.933c3.507-.008 5.815.706 7.05 1.602 1.21.924 1.66 1.852 1.702 3.486v.241c-.047 1.769-.57 2.725-1.831 3.652-1.274.908-3.543 1.57-6.69 1.563h-15.164V109.73zM205 125h19.819c3.737-.016 6.896-.722 9.318-2.391 2.444-1.638 3.905-4.465 3.862-7.55v-.241c.043-2.871-1.254-5.667-3.687-7.356-2.413-1.697-5.654-2.462-9.724-2.462H205v20zm4.719-37.655v-9.686h12.523c3.145-.008 5.277.613 6.42 1.418 1.123.828 1.574 1.648 1.622 3.253v.23c-.064 1.774-.534 2.559-1.745 3.398-1.238.817-3.544 1.398-6.768 1.387H209.72zm21.38 2.519c2.48-1.52 3.955-4.292 3.9-7.303v-.23c.047-2.825-1.282-5.504-3.64-7.074-2.337-1.585-5.407-2.245-9.117-2.257H205v19h16.771c3.742-.012 6.875-.586 9.327-2.136z"/><path d="M248.872 97.55c10.492-7.516 9.384-18.31 9.384-18.31 0-19.099-19.38-23.554-30.576-23.223H204v4.635h23.68c23.256 0 25.792 13.442 25.808 18.588 0 0 .816 14.432-14.82 18.473 0 0 18.484 4.639 18.484 19.892 0 0 2.744 21.676-29.228 21.676H204V144h23.924c10.308-.004 18.756-2.138 24.712-6.554 8.872-6.585 9.424-15.955 9.36-18.911-.008-.598-.032-1.137-.036-1.5-.024-2.58-.868-13.263-13.088-19.486m-78.606 7.594c-.02 12.958-3.655 21.815-9.84 27.55-6.183 5.747-15.246 8.58-26.662 8.58-11.416-.005-20.348-2.888-26.42-8.584-6.067-5.704-9.59-14.406-9.606-26.96V56H93v49.73c-.016 13.394 3.873 23.64 11.103 30.414 7.23 6.77 17.49 9.868 29.66 9.856 12.159 0 22.532-3.026 29.888-9.84 7.357-6.81 11.36-17.21 11.349-31.017v-49.12h-4.734v49.12" fill="#FFF"/><path d="M133.923 125h.081c5.156.016 9.817-1.529 13.08-4.894 3.257-3.37 4.92-8.287 4.916-14.449V56.036h-4.832v49.621c-.004 5.392-1.412 8.967-3.593 11.206-2.186 2.236-5.318 3.409-9.571 3.42-4.245-.011-7.357-1.216-9.554-3.55-2.19-2.335-3.622-6.087-3.622-11.668V56H116v49.065c-.004 6.332 1.647 11.372 4.893 14.851 3.22 3.46 7.875 5.084 13.03 5.084" fill="#FFF"/></g></svg>